<?xml version="1.0" encoding="utf-8" standalone="no"?>
<!DOCTYPE svg PUBLIC "-//W3C//DTD SVG 1.1//EN"
  "http://www.w3.org/Graphics/SVG/1.1/DTD/svg11.dtd">
<svg xmlns:xlink="http://www.w3.org/1999/xlink" width="573.852188pt" height="391.968455pt" viewBox="0 0 573.852188 391.968455" xmlns="http://www.w3.org/2000/svg" version="1.1">
 <metadata>
  <rdf:RDF xmlns:dc="http://purl.org/dc/elements/1.1/" xmlns:cc="http://creativecommons.org/ns#" xmlns:rdf="http://www.w3.org/1999/02/22-rdf-syntax-ns#">
   <cc:Work>
    <dc:type rdf:resource="http://purl.org/dc/dcmitype/StillImage"/>
    <dc:date>2026-06-30T07:33:59.953658</dc:date>
    <dc:format>image/svg+xml</dc:format>
    <dc:creator>
     <cc:Agent>
      <dc:title>Matplotlib v3.10.7, https://matplotlib.org/</dc:title>
     </cc:Agent>
    </dc:creator>
   </cc:Work>
  </rdf:RDF>
 </metadata>
 <defs>
  <style type="text/css">*{stroke-linejoin: round; stroke-linecap: butt}</style>
 </defs>
 <g id="figure_1">
  <g id="patch_1">
   <path d="M 0 391.968455
L 573.852188 391.968455
L 573.852188 0
L 0 0
z
" style="fill: #13151c"/>
  </g>
  <g id="axes_1">
   <g id="patch_2">
    <path d="M 109.092187 319.365969
L 566.652187 319.365969
L 566.652187 31.077969
L 109.092187 31.077969
z
" style="fill: #13151c"/>
   </g>
   <g id="matplotlib.axis_1">
    <g id="xtick_1">
     <g id="line2d_1">
      <path d="M 347.935376 319.365969
L 347.935376 31.077969
" clip-path="url(#p28bcfae7f2)" style="fill: none; stroke: #2a2e38; stroke-width: 0.8; stroke-linecap: square"/>
     </g>
     <g id="line2d_2"/>
     <g id="text_1">
      <!-- $\mathdefault{10^{1}}$ -->
      <g style="fill: #9aa3ad" transform="translate(339.135376 330.464406)">
       <text>
        <tspan x="0" y="-0.064063" style="font-size: 10px; font-family: 'DejaVu Sans'; fill: #9aa3ad">1</tspan>
        <tspan x="6.362305" y="-0.064063" style="font-size: 10px; font-family: 'DejaVu Sans'; fill: #9aa3ad">0</tspan>
        <tspan x="12.820312" y="-3.892188" style="font-size: 7px; font-family: 'DejaVu Sans'; fill: #9aa3ad">1</tspan>
       </text>
      </g>
     </g>
    </g>
    <g id="xtick_2">
     <g id="line2d_3">
      <defs>
       <path id="m2001ec62ad" d="M 0 0
L 0 2
" style="stroke: #9aa3ad; stroke-width: 0.6"/>
      </defs>
      <g>
       <use xlink:href="#m2001ec62ad" x="154.059234" y="319.365969" style="fill: #9aa3ad; stroke: #9aa3ad; stroke-width: 0.6"/>
      </g>
     </g>
    </g>
    <g id="xtick_3">
     <g id="line2d_4">
      <g>
       <use xlink:href="#m2001ec62ad" x="202.90238" y="319.365969" style="fill: #9aa3ad; stroke: #9aa3ad; stroke-width: 0.6"/>
      </g>
     </g>
    </g>
    <g id="xtick_4">
     <g id="line2d_5">
      <g>
       <use xlink:href="#m2001ec62ad" x="237.557144" y="319.365969" style="fill: #9aa3ad; stroke: #9aa3ad; stroke-width: 0.6"/>
      </g>
     </g>
    </g>
    <g id="xtick_5">
     <g id="line2d_6">
      <g>
       <use xlink:href="#m2001ec62ad" x="264.437467" y="319.365969" style="fill: #9aa3ad; stroke: #9aa3ad; stroke-width: 0.6"/>
      </g>
     </g>
    </g>
    <g id="xtick_6">
     <g id="line2d_7">
      <g>
       <use xlink:href="#m2001ec62ad" x="286.40029" y="319.365969" style="fill: #9aa3ad; stroke: #9aa3ad; stroke-width: 0.6"/>
      </g>
     </g>
    </g>
    <g id="xtick_7">
     <g id="line2d_8">
      <g>
       <use xlink:href="#m2001ec62ad" x="304.969592" y="319.365969" style="fill: #9aa3ad; stroke: #9aa3ad; stroke-width: 0.6"/>
      </g>
     </g>
    </g>
    <g id="xtick_8">
     <g id="line2d_9">
      <g>
       <use xlink:href="#m2001ec62ad" x="321.055053" y="319.365969" style="fill: #9aa3ad; stroke: #9aa3ad; stroke-width: 0.6"/>
      </g>
     </g>
    </g>
    <g id="xtick_9">
     <g id="line2d_10">
      <g>
       <use xlink:href="#m2001ec62ad" x="335.243436" y="319.365969" style="fill: #9aa3ad; stroke: #9aa3ad; stroke-width: 0.6"/>
      </g>
     </g>
    </g>
    <g id="xtick_10">
     <g id="line2d_11">
      <g>
       <use xlink:href="#m2001ec62ad" x="431.433286" y="319.365969" style="fill: #9aa3ad; stroke: #9aa3ad; stroke-width: 0.6"/>
      </g>
     </g>
    </g>
    <g id="xtick_11">
     <g id="line2d_12">
      <g>
       <use xlink:href="#m2001ec62ad" x="480.276432" y="319.365969" style="fill: #9aa3ad; stroke: #9aa3ad; stroke-width: 0.6"/>
      </g>
     </g>
    </g>
    <g id="xtick_12">
     <g id="line2d_13">
      <g>
       <use xlink:href="#m2001ec62ad" x="514.931196" y="319.365969" style="fill: #9aa3ad; stroke: #9aa3ad; stroke-width: 0.6"/>
      </g>
     </g>
    </g>
    <g id="xtick_13">
     <g id="line2d_14">
      <g>
       <use xlink:href="#m2001ec62ad" x="541.811519" y="319.365969" style="fill: #9aa3ad; stroke: #9aa3ad; stroke-width: 0.6"/>
      </g>
     </g>
    </g>
    <g id="xtick_14">
     <g id="line2d_15">
      <g>
       <use xlink:href="#m2001ec62ad" x="563.774342" y="319.365969" style="fill: #9aa3ad; stroke: #9aa3ad; stroke-width: 0.6"/>
      </g>
     </g>
    </g>
    <g id="text_2">
     <text style="font-size: 9px; font-family: 'Inter', 'Inter Variable', 'DejaVu Sans', sans-serif; text-anchor: middle; fill: #9aa3ad" x="337.872187" y="343.382687" transform="rotate(-0 337.872187 343.382687)">microseconds per load (log scale, lower is faster)</text>
    </g>
   </g>
   <g id="matplotlib.axis_2">
    <g id="ytick_1">
     <g id="line2d_16"/>
     <g id="text_3">
      <text style="font-size: 10px; font-family: 'Inter', 'Inter Variable', 'DejaVu Sans', sans-serif; text-anchor: end; fill: #e6edf3" x="105.592187" y="63.26147" transform="rotate(-0 105.592187 63.26147)">pydantic v2</text>
     </g>
    </g>
    <g id="ytick_2">
     <g id="line2d_17"/>
     <g id="text_4">
      <text style="font-size: 10px; font-family: 'Inter', 'Inter Variable', 'DejaVu Sans', sans-serif; text-anchor: end; fill: #e6edf3" x="105.592187" y="109.565357" transform="rotate(-0 105.592187 109.565357)">probatio (compiled)</text>
     </g>
    </g>
    <g id="ytick_3">
     <g id="line2d_18"/>
     <g id="text_5">
      <text style="font-size: 10px; font-family: 'Inter', 'Inter Variable', 'DejaVu Sans', sans-serif; text-anchor: end; fill: #e6edf3" x="105.592187" y="155.869244" transform="rotate(-0 105.592187 155.869244)">probatio</text>
     </g>
    </g>
    <g id="ytick_4">
     <g id="line2d_19"/>
     <g id="text_6">
      <text style="font-size: 10px; font-family: 'Inter', 'Inter Variable', 'DejaVu Sans', sans-serif; text-anchor: end; fill: #e6edf3" x="105.592187" y="202.173131" transform="rotate(-0 105.592187 202.173131)">voluptuous</text>
     </g>
    </g>
    <g id="ytick_5">
     <g id="line2d_20"/>
     <g id="text_7">
      <text style="font-size: 10px; font-family: 'Inter', 'Inter Variable', 'DejaVu Sans', sans-serif; text-anchor: end; fill: #e6edf3" x="105.592187" y="248.477018" transform="rotate(-0 105.592187 248.477018)">pydantic v1</text>
     </g>
    </g>
    <g id="ytick_6">
     <g id="line2d_21"/>
     <g id="text_8">
      <text style="font-size: 10px; font-family: 'Inter', 'Inter Variable', 'DejaVu Sans', sans-serif; text-anchor: end; fill: #e6edf3" x="105.592187" y="294.780905" transform="rotate(-0 105.592187 294.780905)">marshmallow</text>
     </g>
    </g>
   </g>
   <g id="patch_3">
    <path d="M 109.092188 319.365969
L 566.652187 319.365969
" style="fill: none; stroke: #2a2e38; stroke-width: 0.8; stroke-linejoin: miter; stroke-linecap: square"/>
   </g>
   <g id="patch_4">
    <path d="M -277303.491285 44.181969
L 126.357941 44.181969
L 126.357941 74.742534
L -277303.491285 74.742534
z
" clip-path="url(#p28bcfae7f2)" style="fill: url(#ha6335bb5cb)"/>
   </g>
   <g id="patch_5">
    <path d="M -277303.491285 90.485856
L 201.60076 90.485856
L 201.60076 121.046421
L -277303.491285 121.046421
z
" clip-path="url(#p28bcfae7f2)" style="fill: #24fefd"/>
   </g>
   <g id="patch_6">
    <path d="M -277303.491285 136.789743
L 261.904042 136.789743
L 261.904042 167.350308
L -277303.491285 167.350308
z
" clip-path="url(#p28bcfae7f2)" style="fill: #46b3ac"/>
   </g>
   <g id="patch_7">
    <path d="M -277303.491285 183.09363
L 330.184308 183.09363
L 330.184308 213.654195
L -277303.491285 213.654195
z
" clip-path="url(#p28bcfae7f2)" style="fill: #5b626d"/>
   </g>
   <g id="patch_8">
    <path d="M -277303.491285 229.397516
L 351.937209 229.397516
L 351.937209 259.958082
L -277303.491285 259.958082
z
" clip-path="url(#p28bcfae7f2)" style="fill: #5b626d"/>
   </g>
   <g id="patch_9">
    <path d="M -277303.491285 275.701403
L 471.673021 275.701403
L 471.673021 306.261969
L -277303.491285 306.261969
z
" clip-path="url(#p28bcfae7f2)" style="fill: #5b626d"/>
   </g>
   <g id="text_9">
    <text style="font-size: 7.5px; font-family: 'Inter', 'Inter Variable', 'DejaVu Sans', sans-serif; text-anchor: start; fill: #9aa3ad" x="137.839198" y="61.531783" transform="rotate(-0 137.839198 61.531783)">1.59µs</text>
   </g>
   <g id="text_10">
    <text style="font-size: 7.5px; font-family: 'Inter', 'Inter Variable', 'DejaVu Sans', sans-serif; text-anchor: start; fill: #9aa3ad" x="213.082017" y="107.83567" transform="rotate(-0 213.082017 107.83567)">2.97µs</text>
   </g>
   <g id="text_11">
    <text style="font-size: 7.5px; font-family: 'Inter', 'Inter Variable', 'DejaVu Sans', sans-serif; text-anchor: start; fill: #9aa3ad" x="273.385299" y="154.139557" transform="rotate(-0 273.385299 154.139557)">4.90µs</text>
   </g>
   <g id="text_12">
    <text style="font-size: 7.5px; font-family: 'Inter', 'Inter Variable', 'DejaVu Sans', sans-serif; text-anchor: start; fill: #9aa3ad" x="341.665564" y="200.443443" transform="rotate(-0 341.665564 200.443443)">8.63µs</text>
   </g>
   <g id="text_13">
    <text style="font-size: 7.5px; font-family: 'Inter', 'Inter Variable', 'DejaVu Sans', sans-serif; text-anchor: start; fill: #9aa3ad" x="363.418466" y="246.74733" transform="rotate(-0 363.418466 246.74733)">10.34µs</text>
   </g>
   <g id="text_14">
    <text style="font-size: 7.5px; font-family: 'Inter', 'Inter Variable', 'DejaVu Sans', sans-serif; text-anchor: start; fill: #9aa3ad" x="483.154278" y="293.051217" transform="rotate(-0 483.154278 293.051217)">27.93µs</text>
   </g>
   <g id="text_15">
    <text style="font-weight: 700; font-size: 13px; font-family: 'Inter', 'Inter Variable', 'DejaVu Sans', sans-serif; text-anchor: start; fill: #e6edf3" x="109.092187" y="17.077969" transform="rotate(-0 109.092187 17.077969)">Validators only, like for like</text>
   </g>
   <g id="legend_1">
    <g id="patch_10">
     <path d="M 234.898672 379.600721
L 251.898672 379.600721
L 251.898672 373.650721
L 234.898672 373.650721
z
" style="fill: #5b626d"/>
    </g>
    <g id="text_16">
     <text style="font-size: 8.5px; font-family: 'Inter', 'Inter Variable', 'DejaVu Sans', sans-serif; text-anchor: start; fill: #e6edf3" x="258.698672" y="379.600721" transform="rotate(-0 258.698672 379.600721)">pure Python</text>
    </g>
    <g id="patch_11">
     <path d="M 327.179453 379.600721
L 344.179453 379.600721
L 344.179453 373.650721
L 327.179453 373.650721
z
" style="fill: url(#ha6335bb5cb)"/>
    </g>
    <g id="text_17">
     <text style="font-size: 8.5px; font-family: 'Inter', 'Inter Variable', 'DejaVu Sans', sans-serif; text-anchor: start; fill: #e6edf3" x="350.979453" y="379.600721" transform="rotate(-0 350.979453 379.600721)">native core (Rust / C)</text>
    </g>
   </g>
  </g>
 </g>
 <defs>
  <clipPath id="p28bcfae7f2">
   <rect x="109.092187" y="31.077969" width="457.56" height="288.288"/>
  </clipPath>
 </defs>
 <defs>
  <pattern id="ha6335bb5cb" patternUnits="userSpaceOnUse" x="0" y="0" width="72" height="72">
   <rect x="0" y="0" width="73" height="73" fill="#5b626d"/>
   <path d="M -36 36
L 36 -36
M -33 39
L 39 -33
M -30 42
L 42 -30
M -27 45
L 45 -27
M -24 48
L 48 -24
M -21 51
L 51 -21
M -18 54
L 54 -18
M -15 57
L 57 -15
M -12 60
L 60 -12
M -9 63
L 63 -9
M -6 66
L 66 -6
M -3 69
L 69 -3
M 0 72
L 72 0
M 3 75
L 75 3
M 6 78
L 78 6
M 9 81
L 81 9
M 12 84
L 84 12
M 15 87
L 87 15
M 18 90
L 90 18
M 21 93
L 93 21
M 24 96
L 96 24
M 27 99
L 99 27
M 30 102
L 102 30
M 33 105
L 105 33
M 36 108
L 108 36
" style="fill: #13151c; stroke: #13151c; stroke-width: 1.0; stroke-linecap: butt; stroke-linejoin: miter"/>
  </pattern>
 </defs>
</svg>
