<?xml version="1.0" encoding="utf-8" standalone="no"?>
<!DOCTYPE svg PUBLIC "-//W3C//DTD SVG 1.1//EN"
  "http://www.w3.org/Graphics/SVG/1.1/DTD/svg11.dtd">
<svg xmlns:xlink="http://www.w3.org/1999/xlink" width="575.044375pt" height="517.315353pt" viewBox="0 0 575.044375 517.315353" xmlns="http://www.w3.org/2000/svg" version="1.1">
 <metadata>
  <rdf:RDF xmlns:dc="http://purl.org/dc/elements/1.1/" xmlns:cc="http://creativecommons.org/ns#" xmlns:rdf="http://www.w3.org/1999/02/22-rdf-syntax-ns#">
   <cc:Work>
    <dc:type rdf:resource="http://purl.org/dc/dcmitype/StillImage"/>
    <dc:date>2026-07-03T00:49:33.638518</dc:date>
    <dc:format>image/svg+xml</dc:format>
    <dc:creator>
     <cc:Agent>
      <dc:title>Matplotlib v3.11.0, https://matplotlib.org/</dc:title>
     </cc:Agent>
    </dc:creator>
   </cc:Work>
  </rdf:RDF>
 </metadata>
 <defs>
  <style type="text/css">*{stroke-linejoin: round; stroke-linecap: butt}</style>
 </defs>
 <g id="figure_1">
  <g id="patch_1">
   <path d="M 0 517.315353
L 575.044375 517.315353
L 575.044375 -0
L 0 -0
z
" style="fill: #13151c"/>
  </g>
  <g id="axes_1">
   <g id="patch_2">
    <path d="M 110.284375 441.333969
L 567.844375 441.333969
L 567.844375 31.077969
L 110.284375 31.077969
z
" style="fill: #13151c"/>
   </g>
   <g id="matplotlib.axis_1">
    <g id="xtick_1">
     <g id="line2d_1">
      <path d="M 145.569529 441.333969
L 145.569529 31.077969
" clip-path="url(#p5529b08340)" style="fill: none; stroke: #2a2e38; stroke-width: 0.8; stroke-linecap: square"/>
     </g>
     <g id="line2d_2"/>
     <g id="text_1">
      <!-- $\mathdefault{10^{0}}$ -->
      <g style="fill: #9aa3ad" transform="translate(136.769529 454.233969)">
       <text>
        <tspan x="0" y="-0.674688" style="font-size: 10px; font-family: 'DejaVu Sans'; fill: #9aa3ad">1</tspan>
        <tspan x="6.362305" y="-0.674688" style="font-size: 10px; font-family: 'DejaVu Sans'; fill: #9aa3ad">0</tspan>
        <tspan x="12.820312" y="-4.804688" style="font-size: 7px; font-family: 'DejaVu Sans'; fill: #9aa3ad">0</tspan>
       </text>
      </g>
     </g>
    </g>
    <g id="xtick_2">
     <g id="line2d_3">
      <path d="M 313.761545 441.333969
L 313.761545 31.077969
" clip-path="url(#p5529b08340)" style="fill: none; stroke: #2a2e38; stroke-width: 0.8; stroke-linecap: square"/>
     </g>
     <g id="line2d_4"/>
     <g id="text_2">
      <!-- $\mathdefault{10^{1}}$ -->
      <g style="fill: #9aa3ad" transform="translate(304.961545 454.133969)">
       <text>
        <tspan x="0" y="-0.762187" style="font-size: 10px; font-family: 'DejaVu Sans'; fill: #9aa3ad">1</tspan>
        <tspan x="6.362305" y="-0.762187" style="font-size: 10px; font-family: 'DejaVu Sans'; fill: #9aa3ad">0</tspan>
        <tspan x="12.820312" y="-4.892187" style="font-size: 7px; font-family: 'DejaVu Sans'; fill: #9aa3ad">1</tspan>
       </text>
      </g>
     </g>
    </g>
    <g id="xtick_3">
     <g id="line2d_5">
      <path d="M 481.953561 441.333969
L 481.953561 31.077969
" clip-path="url(#p5529b08340)" style="fill: none; stroke: #2a2e38; stroke-width: 0.8; stroke-linecap: square"/>
     </g>
     <g id="line2d_6"/>
     <g id="text_3">
      <!-- $\mathdefault{10^{2}}$ -->
      <g style="fill: #9aa3ad" transform="translate(473.153561 454.233969)">
       <text>
        <tspan x="0" y="-0.674688" style="font-size: 10px; font-family: 'DejaVu Sans'; fill: #9aa3ad">1</tspan>
        <tspan x="6.362305" y="-0.674688" style="font-size: 10px; font-family: 'DejaVu Sans'; fill: #9aa3ad">0</tspan>
        <tspan x="12.820312" y="-4.804688" style="font-size: 7px; font-family: 'DejaVu Sans'; fill: #9aa3ad">2</tspan>
       </text>
      </g>
     </g>
    </g>
    <g id="xtick_4">
     <g id="line2d_7">
      <defs>
       <path id="ma858843902" d="M 0 0
L 0 2
" style="stroke: #9aa3ad; stroke-width: 0.6"/>
      </defs>
      <g>
       <use xlink:href="#ma858843902" x="119.516256" y="441.333969" style="fill: #9aa3ad; stroke: #9aa3ad; stroke-width: 0.6"/>
      </g>
     </g>
    </g>
    <g id="xtick_5">
     <g id="line2d_8">
      <g>
       <use xlink:href="#ma858843902" x="129.270038" y="441.333969" style="fill: #9aa3ad; stroke: #9aa3ad; stroke-width: 0.6"/>
      </g>
     </g>
    </g>
    <g id="xtick_6">
     <g id="line2d_9">
      <g>
       <use xlink:href="#ma858843902" x="137.873484" y="441.333969" style="fill: #9aa3ad; stroke: #9aa3ad; stroke-width: 0.6"/>
      </g>
     </g>
    </g>
    <g id="xtick_7">
     <g id="line2d_10">
      <g>
       <use xlink:href="#ma858843902" x="196.20037" y="441.333969" style="fill: #9aa3ad; stroke: #9aa3ad; stroke-width: 0.6"/>
      </g>
     </g>
    </g>
    <g id="xtick_8">
     <g id="line2d_11">
      <g>
       <use xlink:href="#ma858843902" x="225.817514" y="441.333969" style="fill: #9aa3ad; stroke: #9aa3ad; stroke-width: 0.6"/>
      </g>
     </g>
    </g>
    <g id="xtick_9">
     <g id="line2d_12">
      <g>
       <use xlink:href="#ma858843902" x="246.831212" y="441.333969" style="fill: #9aa3ad; stroke: #9aa3ad; stroke-width: 0.6"/>
      </g>
     </g>
    </g>
    <g id="xtick_10">
     <g id="line2d_13">
      <g>
       <use xlink:href="#ma858843902" x="263.130703" y="441.333969" style="fill: #9aa3ad; stroke: #9aa3ad; stroke-width: 0.6"/>
      </g>
     </g>
    </g>
    <g id="xtick_11">
     <g id="line2d_14">
      <g>
       <use xlink:href="#ma858843902" x="276.448356" y="441.333969" style="fill: #9aa3ad; stroke: #9aa3ad; stroke-width: 0.6"/>
      </g>
     </g>
    </g>
    <g id="xtick_12">
     <g id="line2d_15">
      <g>
       <use xlink:href="#ma858843902" x="287.708272" y="441.333969" style="fill: #9aa3ad; stroke: #9aa3ad; stroke-width: 0.6"/>
      </g>
     </g>
    </g>
    <g id="xtick_13">
     <g id="line2d_16">
      <g>
       <use xlink:href="#ma858843902" x="297.462054" y="441.333969" style="fill: #9aa3ad; stroke: #9aa3ad; stroke-width: 0.6"/>
      </g>
     </g>
    </g>
    <g id="xtick_14">
     <g id="line2d_17">
      <g>
       <use xlink:href="#ma858843902" x="306.0655" y="441.333969" style="fill: #9aa3ad; stroke: #9aa3ad; stroke-width: 0.6"/>
      </g>
     </g>
    </g>
    <g id="xtick_15">
     <g id="line2d_18">
      <g>
       <use xlink:href="#ma858843902" x="364.392387" y="441.333969" style="fill: #9aa3ad; stroke: #9aa3ad; stroke-width: 0.6"/>
      </g>
     </g>
    </g>
    <g id="xtick_16">
     <g id="line2d_19">
      <g>
       <use xlink:href="#ma858843902" x="394.009531" y="441.333969" style="fill: #9aa3ad; stroke: #9aa3ad; stroke-width: 0.6"/>
      </g>
     </g>
    </g>
    <g id="xtick_17">
     <g id="line2d_20">
      <g>
       <use xlink:href="#ma858843902" x="415.023229" y="441.333969" style="fill: #9aa3ad; stroke: #9aa3ad; stroke-width: 0.6"/>
      </g>
     </g>
    </g>
    <g id="xtick_18">
     <g id="line2d_21">
      <g>
       <use xlink:href="#ma858843902" x="431.322719" y="441.333969" style="fill: #9aa3ad; stroke: #9aa3ad; stroke-width: 0.6"/>
      </g>
     </g>
    </g>
    <g id="xtick_19">
     <g id="line2d_22">
      <g>
       <use xlink:href="#ma858843902" x="444.640372" y="441.333969" style="fill: #9aa3ad; stroke: #9aa3ad; stroke-width: 0.6"/>
      </g>
     </g>
    </g>
    <g id="xtick_20">
     <g id="line2d_23">
      <g>
       <use xlink:href="#ma858843902" x="455.900288" y="441.333969" style="fill: #9aa3ad; stroke: #9aa3ad; stroke-width: 0.6"/>
      </g>
     </g>
    </g>
    <g id="xtick_21">
     <g id="line2d_24">
      <g>
       <use xlink:href="#ma858843902" x="465.65407" y="441.333969" style="fill: #9aa3ad; stroke: #9aa3ad; stroke-width: 0.6"/>
      </g>
     </g>
    </g>
    <g id="xtick_22">
     <g id="line2d_25">
      <g>
       <use xlink:href="#ma858843902" x="474.257516" y="441.333969" style="fill: #9aa3ad; stroke: #9aa3ad; stroke-width: 0.6"/>
      </g>
     </g>
    </g>
    <g id="xtick_23">
     <g id="line2d_26">
      <g>
       <use xlink:href="#ma858843902" x="532.584403" y="441.333969" style="fill: #9aa3ad; stroke: #9aa3ad; stroke-width: 0.6"/>
      </g>
     </g>
    </g>
    <g id="xtick_24">
     <g id="line2d_27">
      <g>
       <use xlink:href="#ma858843902" x="562.201547" y="441.333969" style="fill: #9aa3ad; stroke: #9aa3ad; stroke-width: 0.6"/>
      </g>
     </g>
    </g>
    <g id="text_4">
     <text style="font-size: 9px; font-family: 'Inter', 'Inter Variable', 'DejaVu Sans', sans-serif; text-anchor: middle; fill: #9aa3ad" x="339.064375" y="467.474906" transform="rotate(-0 339.064375 467.474906)">microseconds per load (log scale, lower is faster)</text>
    </g>
   </g>
   <g id="matplotlib.axis_2">
    <g id="ytick_1">
     <g id="line2d_28"/>
     <g id="text_5">
      <text style="font-size: 10px; font-family: 'Inter', 'Inter Variable', 'DejaVu Sans', sans-serif; text-anchor: end; fill: #e6edf3" x="106.784375" y="66.049964" transform="rotate(-0 106.784375 66.049964)">probatio (construct)</text>
     </g>
    </g>
    <g id="ytick_2">
     <g id="line2d_29"/>
     <g id="text_6">
      <text style="font-size: 10px; font-family: 'Inter', 'Inter Variable', 'DejaVu Sans', sans-serif; text-anchor: end; fill: #e6edf3" x="106.784375" y="100.841008" transform="rotate(-0 106.784375 100.841008)">mashumaro</text>
     </g>
    </g>
    <g id="ytick_3">
     <g id="line2d_30"/>
     <g id="text_7">
      <text style="font-size: 10px; font-family: 'Inter', 'Inter Variable', 'DejaVu Sans', sans-serif; text-anchor: end; fill: #e6edf3" x="106.784375" y="135.631663" transform="rotate(-0 106.784375 135.631663)">cattrs</text>
     </g>
    </g>
    <g id="ytick_4">
     <g id="line2d_31"/>
     <g id="text_8">
      <text style="font-size: 10px; font-family: 'Inter', 'Inter Variable', 'DejaVu Sans', sans-serif; text-anchor: end; fill: #e6edf3" x="106.784375" y="170.423098" transform="rotate(-0 106.784375 170.423098)">pydantic v2</text>
     </g>
    </g>
    <g id="ytick_5">
     <g id="line2d_32"/>
     <g id="text_9">
      <text style="font-size: 10px; font-family: 'Inter', 'Inter Variable', 'DejaVu Sans', sans-serif; text-anchor: end; fill: #e6edf3" x="106.784375" y="205.214143" transform="rotate(-0 106.784375 205.214143)">probatio (compiled)</text>
     </g>
    </g>
    <g id="ytick_6">
     <g id="line2d_33"/>
     <g id="text_10">
      <text style="font-size: 10px; font-family: 'Inter', 'Inter Variable', 'DejaVu Sans', sans-serif; text-anchor: end; fill: #e6edf3" x="106.784375" y="240.005187" transform="rotate(-0 106.784375 240.005187)">probatio</text>
     </g>
    </g>
    <g id="ytick_7">
     <g id="line2d_34"/>
     <g id="text_11">
      <text style="font-size: 10px; font-family: 'Inter', 'Inter Variable', 'DejaVu Sans', sans-serif; text-anchor: end; fill: #e6edf3" x="106.784375" y="274.796232" transform="rotate(-0 106.784375 274.796232)">voluptuous</text>
     </g>
    </g>
    <g id="ytick_8">
     <g id="line2d_35"/>
     <g id="text_12">
      <text style="font-size: 10px; font-family: 'Inter', 'Inter Variable', 'DejaVu Sans', sans-serif; text-anchor: end; fill: #e6edf3" x="106.784375" y="309.587277" transform="rotate(-0 106.784375 309.587277)">pydantic v1</text>
     </g>
    </g>
    <g id="ytick_9">
     <g id="line2d_36"/>
     <g id="text_13">
      <text style="font-size: 10px; font-family: 'Inter', 'Inter Variable', 'DejaVu Sans', sans-serif; text-anchor: end; fill: #e6edf3" x="106.784375" y="344.378322" transform="rotate(-0 106.784375 344.378322)">dacite</text>
     </g>
    </g>
    <g id="ytick_10">
     <g id="line2d_37"/>
     <g id="text_14">
      <text style="font-size: 10px; font-family: 'Inter', 'Inter Variable', 'DejaVu Sans', sans-serif; text-anchor: end; fill: #e6edf3" x="106.784375" y="379.169367" transform="rotate(-0 106.784375 379.169367)">marshmallow</text>
     </g>
    </g>
    <g id="ytick_11">
     <g id="line2d_38"/>
     <g id="text_15">
      <text style="font-size: 10px; font-family: 'Inter', 'Inter Variable', 'DejaVu Sans', sans-serif; text-anchor: end; fill: #e6edf3" x="106.784375" y="413.960411" transform="rotate(-0 106.784375 413.960411)">dataclasses-json</text>
     </g>
    </g>
   </g>
   <g id="patch_3">
    <path d="M 110.284375 441.333969
L 567.844375 441.333969
" style="fill: none; stroke: #2a2e38; stroke-width: 0.8; stroke-linejoin: miter; stroke-linecap: square"/>
   </g>
   <g id="patch_4">
    <path d="M -168046.44665 49.725969
L 129.330434 49.725969
L 129.330434 74.775521
L -168046.44665 74.775521
z
" clip-path="url(#p5529b08340)" style="fill: url(#hf84c0436f1)"/>
   </g>
   <g id="patch_5">
    <path d="M -168046.44665 84.517014
L 155.003732 84.517014
L 155.003732 109.566566
L -168046.44665 109.566566
z
" clip-path="url(#p5529b08340)" style="fill: url(#hed66c801f2)"/>
   </g>
   <g id="patch_6">
    <path d="M -168046.44665 119.308058
L 167.573667 119.308058
L 167.573667 144.357611
L -168046.44665 144.357611
z
" clip-path="url(#p5529b08340)" style="fill: url(#hed66c801f2)"/>
   </g>
   <g id="patch_7">
    <path d="M -168046.44665 154.099103
L 169.327366 154.099103
L 169.327366 179.148655
L -168046.44665 179.148655
z
" clip-path="url(#p5529b08340)" style="fill: #5b626d"/>
   </g>
   <g id="patch_8">
    <path d="M -168046.44665 188.890148
L 212.132895 188.890148
L 212.132895 213.9397
L -168046.44665 213.9397
z
" clip-path="url(#p5529b08340)" style="fill: #24fefd"/>
   </g>
   <g id="patch_9">
    <path d="M -168046.44665 223.681193
L 247.367365 223.681193
L 247.367365 248.730745
L -168046.44665 248.730745
z
" clip-path="url(#p5529b08340)" style="fill: #46b3ac"/>
   </g>
   <g id="patch_10">
    <path d="M -168046.44665 258.472237
L 299.558735 258.472237
L 299.558735 283.52179
L -168046.44665 283.52179
z
" clip-path="url(#p5529b08340)" style="fill: #5b626d"/>
   </g>
   <g id="patch_11">
    <path d="M -168046.44665 293.263282
L 316.448118 293.263282
L 316.448118 318.312834
L -168046.44665 318.312834
z
" clip-path="url(#p5529b08340)" style="fill: #5b626d"/>
   </g>
   <g id="patch_12">
    <path d="M -168046.44665 328.054327
L 358.06942 328.054327
L 358.06942 353.103879
L -168046.44665 353.103879
z
" clip-path="url(#p5529b08340)" style="fill: url(#hed66c801f2)"/>
   </g>
   <g id="patch_13">
    <path d="M -168046.44665 362.845372
L 389.309559 362.845372
L 389.309559 387.894924
L -168046.44665 387.894924
z
" clip-path="url(#p5529b08340)" style="fill: #5b626d"/>
   </g>
   <g id="patch_14">
    <path d="M -168046.44665 397.636417
L 510.251614 397.636417
L 510.251614 422.685969
L -168046.44665 422.685969
z
" clip-path="url(#p5529b08340)" style="fill: url(#hed66c801f2)"/>
   </g>
   <g id="text_16">
    <text style="font-size: 7.5px; font-family: 'Inter', 'Inter Variable', 'DejaVu Sans', sans-serif; text-anchor: start; fill: #9aa3ad" x="137.608512" y="64.198987" transform="rotate(-0 137.608512 64.198987)">0.80µs</text>
   </g>
   <g id="text_17">
    <text style="font-size: 7.5px; font-family: 'Inter', 'Inter Variable', 'DejaVu Sans', sans-serif; text-anchor: start; fill: #9aa3ad" x="163.28181" y="98.990032" transform="rotate(-0 163.28181 98.990032)">1.14µs</text>
   </g>
   <g id="text_18">
    <text style="font-size: 7.5px; font-family: 'Inter', 'Inter Variable', 'DejaVu Sans', sans-serif; text-anchor: start; fill: #9aa3ad" x="175.851745" y="133.781077" transform="rotate(-0 175.851745 133.781077)">1.35µs</text>
   </g>
   <g id="text_19">
    <text style="font-size: 7.5px; font-family: 'Inter', 'Inter Variable', 'DejaVu Sans', sans-serif; text-anchor: start; fill: #9aa3ad" x="177.605444" y="168.572121" transform="rotate(-0 177.605444 168.572121)">1.38µs</text>
   </g>
   <g id="text_20">
    <text style="font-size: 7.5px; font-family: 'Inter', 'Inter Variable', 'DejaVu Sans', sans-serif; text-anchor: start; fill: #9aa3ad" x="220.410974" y="203.363166" transform="rotate(-0 220.410974 203.363166)">2.49µs</text>
   </g>
   <g id="text_21">
    <text style="font-size: 7.5px; font-family: 'Inter', 'Inter Variable', 'DejaVu Sans', sans-serif; text-anchor: start; fill: #9aa3ad" x="255.645443" y="238.154211" transform="rotate(-0 255.645443 238.154211)">4.03µs</text>
   </g>
   <g id="text_22">
    <text style="font-size: 7.5px; font-family: 'Inter', 'Inter Variable', 'DejaVu Sans', sans-serif; text-anchor: start; fill: #9aa3ad" x="307.836814" y="272.945256" transform="rotate(-0 307.836814 272.945256)">8.23µs</text>
   </g>
   <g id="text_23">
    <text style="font-size: 7.5px; font-family: 'Inter', 'Inter Variable', 'DejaVu Sans', sans-serif; text-anchor: start; fill: #9aa3ad" x="324.726197" y="307.7363" transform="rotate(-0 324.726197 307.7363)">10.37µs</text>
   </g>
   <g id="text_24">
    <text style="font-size: 7.5px; font-family: 'Inter', 'Inter Variable', 'DejaVu Sans', sans-serif; text-anchor: start; fill: #9aa3ad" x="366.347499" y="342.527345" transform="rotate(-0 366.347499 342.527345)">18.34µs</text>
   </g>
   <g id="text_25">
    <text style="font-size: 7.5px; font-family: 'Inter', 'Inter Variable', 'DejaVu Sans', sans-serif; text-anchor: start; fill: #9aa3ad" x="397.587638" y="377.31839" transform="rotate(-0 397.587638 377.31839)">28.13µs</text>
   </g>
   <g id="text_26">
    <text style="font-size: 7.5px; font-family: 'Inter', 'Inter Variable', 'DejaVu Sans', sans-serif; text-anchor: start; fill: #9aa3ad" x="518.529692" y="412.109435" transform="rotate(-0 518.529692 412.109435)">147.32µs</text>
   </g>
   <g id="text_27">
    <text style="font-weight: 700; font-size: 13px; font-family: 'Inter', 'Inter Variable', 'DejaVu Sans', sans-serif; text-anchor: start; fill: #e6edf3" x="110.284375" y="17.077969" transform="rotate(-0 110.284375 17.077969)">dict to object, across libraries</text>
   </g>
   <g id="legend_1">
    <g id="patch_15">
     <path d="M 180.9325 504.673361
L 197.9325 504.673361
L 197.9325 498.723361
L 180.9325 498.723361
z
" style="fill: #5b626d"/>
    </g>
    <g id="text_28">
     <text style="font-size: 8.5px; font-family: 'Inter', 'Inter Variable', 'DejaVu Sans', sans-serif; text-anchor: start; fill: #e6edf3" x="204.7325" y="504.673361" transform="rotate(-0 204.7325 504.673361)">validates (checks every field)</text>
    </g>
    <g id="patch_16">
     <path d="M 346.699766 504.673361
L 363.699766 504.673361
L 363.699766 498.723361
L 346.699766 498.723361
z
" style="fill: url(#hed66c801f2)"/>
    </g>
    <g id="text_29">
     <text style="font-size: 8.5px; font-family: 'Inter', 'Inter Variable', 'DejaVu Sans', sans-serif; text-anchor: start; fill: #e6edf3" x="370.499766" y="504.673361" transform="rotate(-0 370.499766 504.673361)">deserializes (trusts the types)</text>
    </g>
   </g>
  </g>
 </g>
 <defs>
  <clipPath id="p5529b08340">
   <rect x="110.284375" y="31.077969" width="457.56" height="410.256"/>
  </clipPath>
 </defs>
 <defs>
  <pattern id="hf84c0436f1" patternUnits="userSpaceOnUse" x="0" y="0" width="72" height="72">
   <rect x="0" y="0" width="73" height="73" fill="#46b3ac"/>
   <path d="M -36 36
L 36 -36
M -33 39
L 39 -33
M -30 42
L 42 -30
M -27 45
L 45 -27
M -24 48
L 48 -24
M -21 51
L 51 -21
M -18 54
L 54 -18
M -15 57
L 57 -15
M -12 60
L 60 -12
M -9 63
L 63 -9
M -6 66
L 66 -6
M -3 69
L 69 -3
M 0 72
L 72 0
M 3 75
L 75 3
M 6 78
L 78 6
M 9 81
L 81 9
M 12 84
L 84 12
M 15 87
L 87 15
M 18 90
L 90 18
M 21 93
L 93 21
M 24 96
L 96 24
M 27 99
L 99 27
M 30 102
L 102 30
M 33 105
L 105 33
M 36 108
L 108 36
" style="fill: #13151c; stroke: #13151c; stroke-width: 1.0; stroke-linecap: butt; stroke-linejoin: miter"/>
  </pattern>
  <pattern id="hed66c801f2" patternUnits="userSpaceOnUse" x="0" y="0" width="72" height="72">
   <rect x="0" y="0" width="73" height="73" fill="#5b626d"/>
   <path d="M -36 36
L 36 -36
M -33 39
L 39 -33
M -30 42
L 42 -30
M -27 45
L 45 -27
M -24 48
L 48 -24
M -21 51
L 51 -21
M -18 54
L 54 -18
M -15 57
L 57 -15
M -12 60
L 60 -12
M -9 63
L 63 -9
M -6 66
L 66 -6
M -3 69
L 69 -3
M 0 72
L 72 0
M 3 75
L 75 3
M 6 78
L 78 6
M 9 81
L 81 9
M 12 84
L 84 12
M 15 87
L 87 15
M 18 90
L 90 18
M 21 93
L 93 21
M 24 96
L 96 24
M 27 99
L 99 27
M 30 102
L 102 30
M 33 105
L 105 33
M 36 108
L 108 36
" style="fill: #13151c; stroke: #13151c; stroke-width: 1.0; stroke-linecap: butt; stroke-linejoin: miter"/>
  </pattern>
 </defs>
</svg>
