<?xml version="1.0" encoding="utf-8" standalone="no"?>
<!DOCTYPE svg PUBLIC "-//W3C//DTD SVG 1.1//EN"
  "http://www.w3.org/Graphics/SVG/1.1/DTD/svg11.dtd">
<svg xmlns:xlink="http://www.w3.org/1999/xlink" width="575.039687pt" height="517.041095pt" viewBox="0 0 575.039687 517.041095" xmlns="http://www.w3.org/2000/svg" version="1.1">
 <metadata>
  <rdf:RDF xmlns:dc="http://purl.org/dc/elements/1.1/" xmlns:cc="http://creativecommons.org/ns#" xmlns:rdf="http://www.w3.org/1999/02/22-rdf-syntax-ns#">
   <cc:Work>
    <dc:type rdf:resource="http://purl.org/dc/dcmitype/StillImage"/>
    <dc:date>2026-06-30T07:33:00.933772</dc:date>
    <dc:format>image/svg+xml</dc:format>
    <dc:creator>
     <cc:Agent>
      <dc:title>Matplotlib v3.10.7, https://matplotlib.org/</dc:title>
     </cc:Agent>
    </dc:creator>
   </cc:Work>
  </rdf:RDF>
 </metadata>
 <defs>
  <style type="text/css">*{stroke-linejoin: round; stroke-linecap: butt}</style>
 </defs>
 <g id="figure_1">
  <g id="patch_1">
   <path d="M 0 517.041095 
L 575.039687 517.041095 
L 575.039687 0 
L 0 0 
z
" style="fill: #13151c"/>
  </g>
  <g id="axes_1">
   <g id="patch_2">
    <path d="M 110.279687 441.333969 
L 567.839687 441.333969 
L 567.839687 31.077969 
L 110.279687 31.077969 
z
" style="fill: #13151c"/>
   </g>
   <g id="matplotlib.axis_1">
    <g id="xtick_1">
     <g id="line2d_1">
      <path d="M 148.171478 441.333969 
L 148.171478 31.077969 
" clip-path="url(#p594c6f56ee)" style="fill: none; stroke: #2a2e38; stroke-width: 0.8; stroke-linecap: square"/>
     </g>
     <g id="line2d_2"/>
     <g id="text_1">
      <!-- $\mathdefault{10^{0}}$ -->
      <g style="fill: #9aa3ad" transform="translate(139.371478 452.432406)">
       <text>
        <tspan x="0" y="-0.976562" style="font-size: 10px; font-family: 'DejaVu Sans'; fill: #9aa3ad">1</tspan>
        <tspan x="6.362305" y="-0.976562" style="font-size: 10px; font-family: 'DejaVu Sans'; fill: #9aa3ad">0</tspan>
        <tspan x="12.820312" y="-4.804688" style="font-size: 7px; font-family: 'DejaVu Sans'; fill: #9aa3ad">0</tspan>
       </text>
      </g>
     </g>
    </g>
    <g id="xtick_2">
     <g id="line2d_3">
      <path d="M 315.28936 441.333969 
L 315.28936 31.077969 
" clip-path="url(#p594c6f56ee)" style="fill: none; stroke: #2a2e38; stroke-width: 0.8; stroke-linecap: square"/>
     </g>
     <g id="line2d_4"/>
     <g id="text_2">
      <!-- $\mathdefault{10^{1}}$ -->
      <g style="fill: #9aa3ad" transform="translate(306.48936 452.432406)">
       <text>
        <tspan x="0" y="-0.064063" style="font-size: 10px; font-family: 'DejaVu Sans'; fill: #9aa3ad">1</tspan>
        <tspan x="6.362305" y="-0.064063" style="font-size: 10px; font-family: 'DejaVu Sans'; fill: #9aa3ad">0</tspan>
        <tspan x="12.820312" y="-3.892188" style="font-size: 7px; font-family: 'DejaVu Sans'; fill: #9aa3ad">1</tspan>
       </text>
      </g>
     </g>
    </g>
    <g id="xtick_3">
     <g id="line2d_5">
      <path d="M 482.407243 441.333969 
L 482.407243 31.077969 
" clip-path="url(#p594c6f56ee)" style="fill: none; stroke: #2a2e38; stroke-width: 0.8; stroke-linecap: square"/>
     </g>
     <g id="line2d_6"/>
     <g id="text_3">
      <!-- $\mathdefault{10^{2}}$ -->
      <g style="fill: #9aa3ad" transform="translate(473.607243 452.432406)">
       <text>
        <tspan x="0" y="-0.976562" style="font-size: 10px; font-family: 'DejaVu Sans'; fill: #9aa3ad">1</tspan>
        <tspan x="6.362305" y="-0.976562" style="font-size: 10px; font-family: 'DejaVu Sans'; fill: #9aa3ad">0</tspan>
        <tspan x="12.820312" y="-4.804688" style="font-size: 7px; font-family: 'DejaVu Sans'; fill: #9aa3ad">2</tspan>
       </text>
      </g>
     </g>
    </g>
    <g id="xtick_4">
     <g id="line2d_7">
      <defs>
       <path id="m77218c5bf6" d="M 0 0 
L 0 2 
" style="stroke: #9aa3ad; stroke-width: 0.6"/>
      </defs>
      <g>
       <use xlink:href="#m77218c5bf6" x="111.096584" y="441.333969" style="fill: #9aa3ad; stroke: #9aa3ad; stroke-width: 0.6"/>
      </g>
     </g>
    </g>
    <g id="xtick_5">
     <g id="line2d_8">
      <g>
       <use xlink:href="#m77218c5bf6" x="122.28459" y="441.333969" style="fill: #9aa3ad; stroke: #9aa3ad; stroke-width: 0.6"/>
      </g>
     </g>
    </g>
    <g id="xtick_6">
     <g id="line2d_9">
      <g>
       <use xlink:href="#m77218c5bf6" x="131.976082" y="441.333969" style="fill: #9aa3ad; stroke: #9aa3ad; stroke-width: 0.6"/>
      </g>
     </g>
    </g>
    <g id="xtick_7">
     <g id="line2d_10">
      <g>
       <use xlink:href="#m77218c5bf6" x="140.524583" y="441.333969" style="fill: #9aa3ad; stroke: #9aa3ad; stroke-width: 0.6"/>
      </g>
     </g>
    </g>
    <g id="xtick_8">
     <g id="line2d_11">
      <g>
       <use xlink:href="#m77218c5bf6" x="198.478973" y="441.333969" style="fill: #9aa3ad; stroke: #9aa3ad; stroke-width: 0.6"/>
      </g>
     </g>
    </g>
    <g id="xtick_9">
     <g id="line2d_12">
      <g>
       <use xlink:href="#m77218c5bf6" x="227.906972" y="441.333969" style="fill: #9aa3ad; stroke: #9aa3ad; stroke-width: 0.6"/>
      </g>
     </g>
    </g>
    <g id="xtick_10">
     <g id="line2d_13">
      <g>
       <use xlink:href="#m77218c5bf6" x="248.786469" y="441.333969" style="fill: #9aa3ad; stroke: #9aa3ad; stroke-width: 0.6"/>
      </g>
     </g>
    </g>
    <g id="xtick_11">
     <g id="line2d_14">
      <g>
       <use xlink:href="#m77218c5bf6" x="264.981865" y="441.333969" style="fill: #9aa3ad; stroke: #9aa3ad; stroke-width: 0.6"/>
      </g>
     </g>
    </g>
    <g id="xtick_12">
     <g id="line2d_15">
      <g>
       <use xlink:href="#m77218c5bf6" x="278.214467" y="441.333969" style="fill: #9aa3ad; stroke: #9aa3ad; stroke-width: 0.6"/>
      </g>
     </g>
    </g>
    <g id="xtick_13">
     <g id="line2d_16">
      <g>
       <use xlink:href="#m77218c5bf6" x="289.402473" y="441.333969" style="fill: #9aa3ad; stroke: #9aa3ad; stroke-width: 0.6"/>
      </g>
     </g>
    </g>
    <g id="xtick_14">
     <g id="line2d_17">
      <g>
       <use xlink:href="#m77218c5bf6" x="299.093964" y="441.333969" style="fill: #9aa3ad; stroke: #9aa3ad; stroke-width: 0.6"/>
      </g>
     </g>
    </g>
    <g id="xtick_15">
     <g id="line2d_18">
      <g>
       <use xlink:href="#m77218c5bf6" x="307.642465" y="441.333969" style="fill: #9aa3ad; stroke: #9aa3ad; stroke-width: 0.6"/>
      </g>
     </g>
    </g>
    <g id="xtick_16">
     <g id="line2d_19">
      <g>
       <use xlink:href="#m77218c5bf6" x="365.596856" y="441.333969" style="fill: #9aa3ad; stroke: #9aa3ad; stroke-width: 0.6"/>
      </g>
     </g>
    </g>
    <g id="xtick_17">
     <g id="line2d_20">
      <g>
       <use xlink:href="#m77218c5bf6" x="395.024854" y="441.333969" style="fill: #9aa3ad; stroke: #9aa3ad; stroke-width: 0.6"/>
      </g>
     </g>
    </g>
    <g id="xtick_18">
     <g id="line2d_21">
      <g>
       <use xlink:href="#m77218c5bf6" x="415.904351" y="441.333969" style="fill: #9aa3ad; stroke: #9aa3ad; stroke-width: 0.6"/>
      </g>
     </g>
    </g>
    <g id="xtick_19">
     <g id="line2d_22">
      <g>
       <use xlink:href="#m77218c5bf6" x="432.099747" y="441.333969" style="fill: #9aa3ad; stroke: #9aa3ad; stroke-width: 0.6"/>
      </g>
     </g>
    </g>
    <g id="xtick_20">
     <g id="line2d_23">
      <g>
       <use xlink:href="#m77218c5bf6" x="445.33235" y="441.333969" style="fill: #9aa3ad; stroke: #9aa3ad; stroke-width: 0.6"/>
      </g>
     </g>
    </g>
    <g id="xtick_21">
     <g id="line2d_24">
      <g>
       <use xlink:href="#m77218c5bf6" x="456.520355" y="441.333969" style="fill: #9aa3ad; stroke: #9aa3ad; stroke-width: 0.6"/>
      </g>
     </g>
    </g>
    <g id="xtick_22">
     <g id="line2d_25">
      <g>
       <use xlink:href="#m77218c5bf6" x="466.211847" y="441.333969" style="fill: #9aa3ad; stroke: #9aa3ad; stroke-width: 0.6"/>
      </g>
     </g>
    </g>
    <g id="xtick_23">
     <g id="line2d_26">
      <g>
       <use xlink:href="#m77218c5bf6" x="474.760348" y="441.333969" style="fill: #9aa3ad; stroke: #9aa3ad; stroke-width: 0.6"/>
      </g>
     </g>
    </g>
    <g id="xtick_24">
     <g id="line2d_27">
      <g>
       <use xlink:href="#m77218c5bf6" x="532.714738" y="441.333969" style="fill: #9aa3ad; stroke: #9aa3ad; stroke-width: 0.6"/>
      </g>
     </g>
    </g>
    <g id="xtick_25">
     <g id="line2d_28">
      <g>
       <use xlink:href="#m77218c5bf6" x="562.142737" y="441.333969" style="fill: #9aa3ad; stroke: #9aa3ad; stroke-width: 0.6"/>
      </g>
     </g>
    </g>
    <g id="text_4">
     <text style="font-size: 9px; font-family: 'Inter', 'Inter Variable', 'DejaVu Sans', sans-serif; text-anchor: middle; fill: #9aa3ad" x="339.059687" y="465.350688" transform="rotate(-0 339.059687 465.350688)">microseconds per load (log scale, lower is faster)</text>
    </g>
   </g>
   <g id="matplotlib.axis_2">
    <g id="ytick_1">
     <g id="line2d_29"/>
     <g id="text_5">
      <text style="font-size: 10px; font-family: 'Inter', 'Inter Variable', 'DejaVu Sans', sans-serif; text-anchor: end; fill: #e6edf3" x="106.779687" y="66.049964" transform="rotate(-0 106.779687 66.049964)">probatio (construct)</text>
     </g>
    </g>
    <g id="ytick_2">
     <g id="line2d_30"/>
     <g id="text_6">
      <text style="font-size: 10px; font-family: 'Inter', 'Inter Variable', 'DejaVu Sans', sans-serif; text-anchor: end; fill: #e6edf3" x="106.779687" y="100.841008" transform="rotate(-0 106.779687 100.841008)">mashumaro</text>
     </g>
    </g>
    <g id="ytick_3">
     <g id="line2d_31"/>
     <g id="text_7">
      <text style="font-size: 10px; font-family: 'Inter', 'Inter Variable', 'DejaVu Sans', sans-serif; text-anchor: end; fill: #e6edf3" x="106.779687" y="135.632053" transform="rotate(-0 106.779687 135.632053)">cattrs</text>
     </g>
    </g>
    <g id="ytick_4">
     <g id="line2d_32"/>
     <g id="text_8">
      <text style="font-size: 10px; font-family: 'Inter', 'Inter Variable', 'DejaVu Sans', sans-serif; text-anchor: end; fill: #e6edf3" x="106.779687" y="170.423098" transform="rotate(-0 106.779687 170.423098)">pydantic v2</text>
     </g>
    </g>
    <g id="ytick_5">
     <g id="line2d_33"/>
     <g id="text_9">
      <text style="font-size: 10px; font-family: 'Inter', 'Inter Variable', 'DejaVu Sans', sans-serif; text-anchor: end; fill: #e6edf3" x="106.779687" y="205.214143" transform="rotate(-0 106.779687 205.214143)">probatio (compiled)</text>
     </g>
    </g>
    <g id="ytick_6">
     <g id="line2d_34"/>
     <g id="text_10">
      <text style="font-size: 10px; font-family: 'Inter', 'Inter Variable', 'DejaVu Sans', sans-serif; text-anchor: end; fill: #e6edf3" x="106.779687" y="240.005188" transform="rotate(-0 106.779687 240.005188)">probatio</text>
     </g>
    </g>
    <g id="ytick_7">
     <g id="line2d_35"/>
     <g id="text_11">
      <text style="font-size: 10px; font-family: 'Inter', 'Inter Variable', 'DejaVu Sans', sans-serif; text-anchor: end; fill: #e6edf3" x="106.779687" y="274.796232" transform="rotate(-0 106.779687 274.796232)">voluptuous</text>
     </g>
    </g>
    <g id="ytick_8">
     <g id="line2d_36"/>
     <g id="text_12">
      <text style="font-size: 10px; font-family: 'Inter', 'Inter Variable', 'DejaVu Sans', sans-serif; text-anchor: end; fill: #e6edf3" x="106.779687" y="309.587277" transform="rotate(-0 106.779687 309.587277)">pydantic v1</text>
     </g>
    </g>
    <g id="ytick_9">
     <g id="line2d_37"/>
     <g id="text_13">
      <text style="font-size: 10px; font-family: 'Inter', 'Inter Variable', 'DejaVu Sans', sans-serif; text-anchor: end; fill: #e6edf3" x="106.779687" y="344.378322" transform="rotate(-0 106.779687 344.378322)">dacite</text>
     </g>
    </g>
    <g id="ytick_10">
     <g id="line2d_38"/>
     <g id="text_14">
      <text style="font-size: 10px; font-family: 'Inter', 'Inter Variable', 'DejaVu Sans', sans-serif; text-anchor: end; fill: #e6edf3" x="106.779687" y="379.169367" transform="rotate(-0 106.779687 379.169367)">marshmallow</text>
     </g>
    </g>
    <g id="ytick_11">
     <g id="line2d_39"/>
     <g id="text_15">
      <text style="font-size: 10px; font-family: 'Inter', 'Inter Variable', 'DejaVu Sans', sans-serif; text-anchor: end; fill: #e6edf3" x="106.779687" y="413.960411" transform="rotate(-0 106.779687 413.960411)">dataclasses-json</text>
     </g>
    </g>
   </g>
   <g id="patch_3">
    <path d="M 110.279687 441.333969 
L 567.839687 441.333969 
" style="fill: none; stroke: #2a2e38; stroke-width: 0.8; stroke-linejoin: miter; stroke-linecap: square"/>
   </g>
   <g id="patch_4">
    <path d="M -166969.711098 49.725969 
L 129.343261 49.725969 
L 129.343261 74.775521 
L -166969.711098 74.775521 
z
" clip-path="url(#p594c6f56ee)" style="fill: url(#hbcdf086a27)"/>
   </g>
   <g id="patch_5">
    <path d="M -166969.711098 84.517014 
L 161.538056 84.517014 
L 161.538056 109.566566 
L -166969.711098 109.566566 
z
" clip-path="url(#p594c6f56ee)" style="fill: url(#h279670525c)"/>
   </g>
   <g id="patch_6">
    <path d="M -166969.711098 119.308058 
L 170.613434 119.308058 
L 170.613434 144.357611 
L -166969.711098 144.357611 
z
" clip-path="url(#p594c6f56ee)" style="fill: url(#h279670525c)"/>
   </g>
   <g id="patch_7">
    <path d="M -166969.711098 154.099103 
L 179.472502 154.099103 
L 179.472502 179.148655 
L -166969.711098 179.148655 
z
" clip-path="url(#p594c6f56ee)" style="fill: #5b626d"/>
   </g>
   <g id="patch_8">
    <path d="M -166969.711098 188.890148 
L 226.476705 188.890148 
L 226.476705 213.9397 
L -166969.711098 213.9397 
z
" clip-path="url(#p594c6f56ee)" style="fill: #24fefd"/>
   </g>
   <g id="patch_9">
    <path d="M -166969.711098 223.681193 
L 263.225791 223.681193 
L 263.225791 248.730745 
L -166969.711098 248.730745 
z
" clip-path="url(#p594c6f56ee)" style="fill: #46b3ac"/>
   </g>
   <g id="patch_10">
    <path d="M -166969.711098 258.472237 
L 304.158197 258.472237 
L 304.158197 283.52179 
L -166969.711098 283.52179 
z
" clip-path="url(#p594c6f56ee)" style="fill: #5b626d"/>
   </g>
   <g id="patch_11">
    <path d="M -166969.711098 293.263282 
L 316.459955 293.263282 
L 316.459955 318.312834 
L -166969.711098 318.312834 
z
" clip-path="url(#p594c6f56ee)" style="fill: #5b626d"/>
   </g>
   <g id="patch_12">
    <path d="M -166969.711098 328.054327 
L 358.945539 328.054327 
L 358.945539 353.103879 
L -166969.711098 353.103879 
z
" clip-path="url(#p594c6f56ee)" style="fill: url(#h279670525c)"/>
   </g>
   <g id="patch_13">
    <path d="M -166969.711098 362.845372 
L 389.651643 362.845372 
L 389.651643 387.894924 
L -166969.711098 387.894924 
z
" clip-path="url(#p594c6f56ee)" style="fill: #5b626d"/>
   </g>
   <g id="patch_14">
    <path d="M -166969.711098 397.636417 
L 510.614734 397.636417 
L 510.614734 422.685969 
L -166969.711098 422.685969 
z
" clip-path="url(#p594c6f56ee)" style="fill: url(#h279670525c)"/>
   </g>
   <g id="text_16">
    <text style="font-size: 7.5px; font-family: 'Inter', 'Inter Variable', 'DejaVu Sans', sans-serif; text-anchor: start; fill: #9aa3ad" x="137.568473" y="64.320276" transform="rotate(-0 137.568473 64.320276)">0.77µs</text>
   </g>
   <g id="text_17">
    <text style="font-size: 7.5px; font-family: 'Inter', 'Inter Variable', 'DejaVu Sans', sans-serif; text-anchor: start; fill: #9aa3ad" x="169.763267" y="99.111321" transform="rotate(-0 169.763267 99.111321)">1.20µs</text>
   </g>
   <g id="text_18">
    <text style="font-size: 7.5px; font-family: 'Inter', 'Inter Variable', 'DejaVu Sans', sans-serif; text-anchor: start; fill: #9aa3ad" x="178.838646" y="133.902366" transform="rotate(-0 178.838646 133.902366)">1.36µs</text>
   </g>
   <g id="text_19">
    <text style="font-size: 7.5px; font-family: 'Inter', 'Inter Variable', 'DejaVu Sans', sans-serif; text-anchor: start; fill: #9aa3ad" x="187.697714" y="168.69341" transform="rotate(-0 187.697714 168.69341)">1.54µs</text>
   </g>
   <g id="text_20">
    <text style="font-size: 7.5px; font-family: 'Inter', 'Inter Variable', 'DejaVu Sans', sans-serif; text-anchor: start; fill: #9aa3ad" x="234.701917" y="203.484455" transform="rotate(-0 234.701917 203.484455)">2.94µs</text>
   </g>
   <g id="text_21">
    <text style="font-size: 7.5px; font-family: 'Inter', 'Inter Variable', 'DejaVu Sans', sans-serif; text-anchor: start; fill: #9aa3ad" x="271.451002" y="238.2755" transform="rotate(-0 271.451002 238.2755)">4.88µs</text>
   </g>
   <g id="text_22">
    <text style="font-size: 7.5px; font-family: 'Inter', 'Inter Variable', 'DejaVu Sans', sans-serif; text-anchor: start; fill: #9aa3ad" x="312.383409" y="273.066545" transform="rotate(-0 312.383409 273.066545)">8.58µs</text>
   </g>
   <g id="text_23">
    <text style="font-size: 7.5px; font-family: 'Inter', 'Inter Variable', 'DejaVu Sans', sans-serif; text-anchor: start; fill: #9aa3ad" x="324.685166" y="307.85759" transform="rotate(-0 324.685166 307.85759)">10.16µs</text>
   </g>
   <g id="text_24">
    <text style="font-size: 7.5px; font-family: 'Inter', 'Inter Variable', 'DejaVu Sans', sans-serif; text-anchor: start; fill: #9aa3ad" x="367.170751" y="342.648634" transform="rotate(-0 367.170751 342.648634)">18.25µs</text>
   </g>
   <g id="text_25">
    <text style="font-size: 7.5px; font-family: 'Inter', 'Inter Variable', 'DejaVu Sans', sans-serif; text-anchor: start; fill: #9aa3ad" x="397.876854" y="377.439679" transform="rotate(-0 397.876854 377.439679)">27.86µs</text>
   </g>
   <g id="text_26">
    <text style="font-size: 7.5px; font-family: 'Inter', 'Inter Variable', 'DejaVu Sans', sans-serif; text-anchor: start; fill: #9aa3ad" x="518.839946" y="412.230724" transform="rotate(-0 518.839946 412.230724)">147.50µs</text>
   </g>
   <g id="text_27">
    <text style="font-weight: 700; font-size: 13px; font-family: 'Inter', 'Inter Variable', 'DejaVu Sans', sans-serif; text-anchor: start; fill: #e6edf3" x="110.279687" y="17.077969" transform="rotate(-0 110.279687 17.077969)">dict to object, across libraries</text>
   </g>
   <g id="legend_1">
    <g id="patch_15">
     <path d="M 180.927812 504.673361 
L 197.927812 504.673361 
L 197.927812 498.723361 
L 180.927812 498.723361 
z
" style="fill: #5b626d"/>
    </g>
    <g id="text_28">
     <text style="font-size: 8.5px; font-family: 'Inter', 'Inter Variable', 'DejaVu Sans', sans-serif; text-anchor: start; fill: #e6edf3" x="204.727812" y="504.673361" transform="rotate(-0 204.727812 504.673361)">validates (checks every field)</text>
    </g>
    <g id="patch_16">
     <path d="M 346.695078 504.673361 
L 363.695078 504.673361 
L 363.695078 498.723361 
L 346.695078 498.723361 
z
" style="fill: url(#h279670525c)"/>
    </g>
    <g id="text_29">
     <text style="font-size: 8.5px; font-family: 'Inter', 'Inter Variable', 'DejaVu Sans', sans-serif; text-anchor: start; fill: #e6edf3" x="370.495078" y="504.673361" transform="rotate(-0 370.495078 504.673361)">deserializes (trusts the types)</text>
    </g>
   </g>
  </g>
 </g>
 <defs>
  <clipPath id="p594c6f56ee">
   <rect x="110.279687" y="31.077969" width="457.56" height="410.256"/>
  </clipPath>
 </defs>
 <defs>
  <pattern id="hbcdf086a27" patternUnits="userSpaceOnUse" x="0" y="0" width="72" height="72">
   <rect x="0" y="0" width="73" height="73" fill="#46b3ac"/>
   <path d="M -36 36 
L 36 -36 
M -33 39 
L 39 -33 
M -30 42 
L 42 -30 
M -27 45 
L 45 -27 
M -24 48 
L 48 -24 
M -21 51 
L 51 -21 
M -18 54 
L 54 -18 
M -15 57 
L 57 -15 
M -12 60 
L 60 -12 
M -9 63 
L 63 -9 
M -6 66 
L 66 -6 
M -3 69 
L 69 -3 
M 0 72 
L 72 0 
M 3 75 
L 75 3 
M 6 78 
L 78 6 
M 9 81 
L 81 9 
M 12 84 
L 84 12 
M 15 87 
L 87 15 
M 18 90 
L 90 18 
M 21 93 
L 93 21 
M 24 96 
L 96 24 
M 27 99 
L 99 27 
M 30 102 
L 102 30 
M 33 105 
L 105 33 
M 36 108 
L 108 36 
" style="fill: #13151c; stroke: #13151c; stroke-width: 1.0; stroke-linecap: butt; stroke-linejoin: miter"/>
  </pattern>
  <pattern id="h279670525c" patternUnits="userSpaceOnUse" x="0" y="0" width="72" height="72">
   <rect x="0" y="0" width="73" height="73" fill="#5b626d"/>
   <path d="M -36 36 
L 36 -36 
M -33 39 
L 39 -33 
M -30 42 
L 42 -30 
M -27 45 
L 45 -27 
M -24 48 
L 48 -24 
M -21 51 
L 51 -21 
M -18 54 
L 54 -18 
M -15 57 
L 57 -15 
M -12 60 
L 60 -12 
M -9 63 
L 63 -9 
M -6 66 
L 66 -6 
M -3 69 
L 69 -3 
M 0 72 
L 72 0 
M 3 75 
L 75 3 
M 6 78 
L 78 6 
M 9 81 
L 81 9 
M 12 84 
L 84 12 
M 15 87 
L 87 15 
M 18 90 
L 90 18 
M 21 93 
L 93 21 
M 24 96 
L 96 24 
M 27 99 
L 99 27 
M 30 102 
L 102 30 
M 33 105 
L 105 33 
M 36 108 
L 108 36 
" style="fill: #13151c; stroke: #13151c; stroke-width: 1.0; stroke-linecap: butt; stroke-linejoin: miter"/>
  </pattern>
 </defs>
</svg>
